<svg width="30" height="30" viewBox="0 0 30 30" fill="none" xmlns="http://www.w3.org/2000/svg">
<path d="M5.85714 2C4.83416 2 3.85309 2.40638 3.12973 3.12973C2.40638 3.85309 2 4.83416 2 5.85714V25.1429C2 26.1658 2.40638 27.1469 3.12973 27.8703C3.85309 28.5936 4.83416 29 5.85714 29H25.1429C26.1658 29 27.1469 28.5936 27.8703 27.8703C28.5936 27.1469 29 26.1658 29 25.1429V5.85714C29 4.83416 28.5936 3.85309 27.8703 3.12973C27.1469 2.40638 26.1658 2 25.1429 2H5.85714ZM16.4643 8.75V14.5357H22.25C22.5057 14.5357 22.751 14.6373 22.9319 14.8181C23.1127 14.999 23.2143 15.2443 23.2143 15.5C23.2143 15.7557 23.1127 16.001 22.9319 16.1819C22.751 16.3627 22.5057 16.4643 22.25 16.4643H16.4643V22.25C16.4643 22.5057 16.3627 22.751 16.1819 22.9319C16.001 23.1127 15.7557 23.2143 15.5 23.2143C15.2443 23.2143 14.999 23.1127 14.8181 22.9319C14.6373 22.751 14.5357 22.5057 14.5357 22.25V16.4643H8.75C8.49426 16.4643 8.24899 16.3627 8.06815 16.1819C7.88731 16.001 7.78571 15.7557 7.78571 15.5C7.78571 15.2443 7.88731 14.999 8.06815 14.8181C8.24899 14.6373 8.49426 14.5357 8.75 14.5357H14.5357V8.75C14.5357 8.49426 14.6373 8.24899 14.8181 8.06815C14.999 7.88731 15.2443 7.78571 15.5 7.78571C15.7557 7.78571 16.001 7.88731 16.1819 8.06815C16.3627 8.24899 16.4643 8.49426 16.4643 8.75V8.75Z" fill="#B3B3B3"/>
</svg>
