<svg width="27" height="27" viewBox="0 0 27 27" fill="none" xmlns="http://www.w3.org/2000/svg">
<rect x="5" y="6" width="17" height="16" fill="#B3B3B3"/>
<path d="M3 0H24C24.7956 0 25.5587 0.31607 26.1213 0.87868C26.6839 1.44129 27 2.20435 27 3V24C27 24.7956 26.6839 25.5587 26.1213 26.1213C25.5587 26.6839 24.7956 27 24 27H3C2.20435 27 1.44129 26.6839 0.87868 26.1213C0.31607 25.5587 0 24.7956 0 24V3C0 2.20435 0.31607 1.44129 0.87868 0.87868C1.44129 0.31607 2.20435 0 3 0V0ZM13.5 21L14.58 20.01C18.45 16.5 21 14.19 21 11.355C21 9.045 19.185 7.23 16.875 7.23C15.57 7.23 14.325 7.845 13.5 8.805C13.082 8.31731 12.5647 7.92451 11.9827 7.65289C11.4006 7.38127 10.7673 7.23709 10.125 7.23C7.815 7.23 6 9.045 6 11.355C6 14.19 8.55 16.5 12.42 20.01L13.5 21Z" fill="url(#paint0_linear_103_14)"/>
<defs>
<linearGradient id="paint0_linear_103_14" x1="-0.5" y1="2.16667" x2="27.5" y2="27.5" gradientUnits="userSpaceOnUse">
<stop offset="0.0833333" stop-color="#578DDD"/>
<stop offset="0.354167" stop-color="#5C70B8"/>
<stop offset="0.796875" stop-color="#B5B4E6"/>
<stop offset="0.942708" stop-color="#F1EDF9"/>
</linearGradient>
</defs>
</svg>
