<svg width="26" height="27" viewBox="0 0 26 27" fill="none" xmlns="http://www.w3.org/2000/svg">
<path d="M23.6288 12.3066L13.7501 3.33381C13.4289 3.04211 13.006 2.88425 12.5697 2.89322C12.1334 2.90219 11.7175 3.0773 11.409 3.38194L2.3234 12.3519L1.85714 12.8122V26.0357H10.6122V17.785H15.3878V26.0357H24.1429V12.7735L23.6288 12.3066ZM12.6039 4.46446C12.618 4.46446 12.6093 4.46745 12.6033 4.4733C12.5971 4.46745 12.5899 4.46446 12.6039 4.46446ZM22.551 24.4641H16.9796V17.785C16.9796 17.3682 16.8119 16.9684 16.5134 16.6737C16.2148 16.379 15.8099 16.2134 15.3878 16.2134H10.6122C10.1901 16.2134 9.78517 16.379 9.48665 16.6737C9.18812 16.9684 9.02041 17.3682 9.02041 17.785V24.4641H3.44898V13.4631L12.6039 4.49319C12.6046 4.4926 12.6046 4.49206 12.6051 4.49147L22.551 13.4631V24.4641Z" fill="#B3B3B3"/>
</svg>
