<svg width="27" height="27" viewBox="0 0 27 27" fill="none" xmlns="http://www.w3.org/2000/svg">
<path d="M3.85714 2.89286H5.77607C6.26246 2.89295 6.73085 3.07681 7.08742 3.40763C7.44398 3.73844 7.66238 4.19177 7.69886 4.67679L7.70464 4.82143V22.1786C7.70431 22.6651 7.52023 23.1334 7.18926 23.49C6.85829 23.8465 6.40486 24.0649 5.91975 24.1014L5.77511 24.1071H3.85714C3.37082 24.1068 2.90255 23.9229 2.54603 23.5921C2.18952 23.2613 1.97105 22.8082 1.93436 22.3232L1.92857 22.1786V4.82143C1.92842 4.33487 2.11218 3.86624 2.44301 3.50947C2.77385 3.1527 3.22731 2.93417 3.7125 2.89768L3.85714 2.89286H5.77607H3.85714ZM10.6023 2.89286H12.5261C13.0125 2.89295 13.4809 3.07681 13.8374 3.40763C14.194 3.73844 14.4124 4.19177 14.4489 4.67679L14.4546 4.82143V22.1786C14.4543 22.6651 14.2702 23.1334 13.9393 23.49C13.6083 23.8465 13.1549 24.0649 12.6697 24.1014L12.5251 24.1071H10.6023C10.1158 24.1073 9.64713 23.9235 9.29036 23.5927C8.9336 23.2619 8.71506 22.8084 8.67857 22.3232L8.67375 22.1786V4.82143C8.67359 4.33487 8.85735 3.86624 9.18819 3.50947C9.51903 3.1527 9.97249 2.93417 10.4577 2.89768L10.6023 2.89286H12.5261H10.6023V2.89286ZM19.4111 4.8465C20.2249 4.8465 20.9694 5.36529 21.2365 6.15793L21.2808 6.30932L25.003 21.2394C25.121 21.7115 25.0563 22.2108 24.8216 22.6371C24.587 23.0635 24.1998 23.3853 23.7378 23.5382L23.599 23.5778L21.7061 24.0503C21.2363 24.1668 20.7399 24.1026 20.3152 23.8705C19.8905 23.6383 19.5685 23.2551 19.413 22.7967L19.3686 22.6443L15.6465 7.71429C15.5287 7.24219 15.5938 6.74303 15.8286 6.31687C16.0634 5.89072 16.4506 5.56906 16.9126 5.41639L17.0505 5.37589L18.9434 4.90436C19.0996 4.86579 19.2568 4.8465 19.4111 4.8465V4.8465ZM5.77607 4.33929H3.85714C3.7444 4.33962 3.6353 4.3793 3.54869 4.45148C3.46208 4.52366 3.40337 4.62381 3.38271 4.73464L3.375 4.82143V22.1786C3.375 22.4139 3.54664 22.6125 3.77036 22.653L3.85714 22.6607H5.77607C6.01232 22.6607 6.21 22.4891 6.2505 22.2654L6.25821 22.1786V4.82143C6.25806 4.70863 6.21845 4.59945 6.14624 4.51279C6.07403 4.42614 5.97377 4.36749 5.86286 4.347L5.77607 4.33929ZM12.5261 4.33929H10.6023C10.4895 4.33944 10.3803 4.37905 10.2937 4.45126C10.207 4.52347 10.1484 4.62372 10.1279 4.73464L10.1202 4.82143V22.1786C10.1202 22.4139 10.2909 22.6125 10.5155 22.653L10.6023 22.6607H12.5261C12.7623 22.6607 12.96 22.4891 13.0005 22.2654L13.0082 22.1786V4.82143C13.0081 4.70863 12.9684 4.59945 12.8962 4.51279C12.824 4.42614 12.7238 4.36749 12.6129 4.347L12.5261 4.33929V4.33929ZM19.4111 6.29293L19.3522 6.29679L19.2925 6.30739L17.4005 6.77989C17.291 6.8072 17.1946 6.87205 17.128 6.96314C17.0614 7.05424 17.0288 7.16581 17.036 7.27843L17.0495 7.36329L20.7717 22.2943C20.8344 22.545 21.0581 22.6607 21.2384 22.6607L21.2982 22.6578L21.356 22.6453L23.2489 22.1738C23.3582 22.1465 23.4546 22.0818 23.5212 21.9909C23.5877 21.9 23.6204 21.7886 23.6134 21.6762L23.5999 21.5894L19.8778 6.65839C19.8521 6.55404 19.7922 6.46131 19.7075 6.39505C19.6229 6.3288 19.5185 6.29284 19.4111 6.29293V6.29293Z" fill="#B3B3B3"/>
</svg>
